<mxfile host="app.diagrams.net" modified="2021-11-02T06:11:55.363Z" agent="5.0 (Macintosh; Intel Mac OS X 10_15_7) AppleWebKit/537.36 (KHTML, like Gecko) Chrome/95.0.4638.54 Safari/537.36" etag="qR9owkY3As7vlHN80OMf" version="15.6.5" type="github">
  <diagram id="H5SE7Z1bFSFsMQtuZHQR" name="Page-1">
    <mxGraphModel dx="1666" dy="1621" grid="1" gridSize="10" guides="1" tooltips="1" connect="1" arrows="1" fold="1" page="1" pageScale="1" pageWidth="1169" pageHeight="827" math="0" shadow="0">
      <root>
        <mxCell id="0" />
        <mxCell id="1" parent="0" />
        <mxCell id="rGiCpmWp_qi686GCdDj7-1" value="" style="rounded=0;whiteSpace=wrap;html=1;" vertex="1" parent="1">
          <mxGeometry x="200" y="30" width="740" height="620" as="geometry" />
        </mxCell>
        <mxCell id="rGiCpmWp_qi686GCdDj7-2" value="" style="rounded=0;whiteSpace=wrap;html=1;" vertex="1" parent="1">
          <mxGeometry x="290" y="90" width="590" height="400" as="geometry" />
        </mxCell>
        <mxCell id="rGiCpmWp_qi686GCdDj7-3" value="" style="rounded=0;whiteSpace=wrap;html=1;" vertex="1" parent="1">
          <mxGeometry x="330" y="120" width="510" height="60" as="geometry" />
        </mxCell>
        <mxCell id="rGiCpmWp_qi686GCdDj7-4" value="" style="rounded=0;whiteSpace=wrap;html=1;" vertex="1" parent="1">
          <mxGeometry x="330" y="220" width="510" height="60" as="geometry" />
        </mxCell>
        <mxCell id="rGiCpmWp_qi686GCdDj7-5" value="" style="rounded=0;whiteSpace=wrap;html=1;" vertex="1" parent="1">
          <mxGeometry x="330" y="330" width="510" height="60" as="geometry" />
        </mxCell>
        <mxCell id="rGiCpmWp_qi686GCdDj7-6" value="" style="rounded=0;whiteSpace=wrap;html=1;" vertex="1" parent="1">
          <mxGeometry x="290" y="520" width="600" height="100" as="geometry" />
        </mxCell>
        <mxCell id="rGiCpmWp_qi686GCdDj7-7" value="&lt;font style=&quot;font-size: 48px&quot;&gt;To Do List App&lt;/font&gt;" style="text;html=1;strokeColor=none;fillColor=none;align=center;verticalAlign=middle;whiteSpace=wrap;rounded=0;" vertex="1" parent="1">
          <mxGeometry x="170" y="-40" width="760" height="30" as="geometry" />
        </mxCell>
        <mxCell id="rGiCpmWp_qi686GCdDj7-8" value="&lt;font style=&quot;font-size: 18px&quot;&gt;ToDoItem&lt;/font&gt;" style="text;html=1;strokeColor=none;fillColor=none;align=center;verticalAlign=middle;whiteSpace=wrap;rounded=0;fontSize=48;" vertex="1" parent="1">
          <mxGeometry x="340" y="110" width="60" height="30" as="geometry" />
        </mxCell>
        <mxCell id="rGiCpmWp_qi686GCdDj7-9" value="&lt;font style=&quot;font-size: 18px&quot;&gt;ToDoItemGroup&lt;/font&gt;" style="text;html=1;strokeColor=none;fillColor=none;align=center;verticalAlign=middle;whiteSpace=wrap;rounded=0;fontSize=48;" vertex="1" parent="1">
          <mxGeometry x="340" y="80" width="60" height="30" as="geometry" />
        </mxCell>
        <mxCell id="rGiCpmWp_qi686GCdDj7-12" value="ToDoGenerator" style="text;html=1;strokeColor=none;fillColor=none;align=center;verticalAlign=middle;whiteSpace=wrap;rounded=0;fontSize=18;" vertex="1" parent="1">
          <mxGeometry x="330" y="540" width="60" height="30" as="geometry" />
        </mxCell>
        <mxCell id="rGiCpmWp_qi686GCdDj7-13" value="&lt;font style=&quot;font-size: 18px&quot;&gt;ToDoItem&lt;/font&gt;" style="text;html=1;strokeColor=none;fillColor=none;align=center;verticalAlign=middle;whiteSpace=wrap;rounded=0;fontSize=48;" vertex="1" parent="1">
          <mxGeometry x="340" y="220" width="60" height="30" as="geometry" />
        </mxCell>
        <mxCell id="rGiCpmWp_qi686GCdDj7-14" value="&lt;font style=&quot;font-size: 18px&quot;&gt;ToDoItem&lt;/font&gt;" style="text;html=1;strokeColor=none;fillColor=none;align=center;verticalAlign=middle;whiteSpace=wrap;rounded=0;fontSize=48;" vertex="1" parent="1">
          <mxGeometry x="350" y="330" width="60" height="30" as="geometry" />
        </mxCell>
        <mxCell id="rGiCpmWp_qi686GCdDj7-15" value="add" style="rounded=1;whiteSpace=wrap;html=1;fontSize=18;" vertex="1" parent="1">
          <mxGeometry x="790" y="560" width="60" height="20" as="geometry" />
        </mxCell>
        <mxCell id="rGiCpmWp_qi686GCdDj7-16" value="X" style="rounded=1;whiteSpace=wrap;html=1;fontSize=18;" vertex="1" parent="1">
          <mxGeometry x="760" y="350" width="60" height="20" as="geometry" />
        </mxCell>
        <mxCell id="rGiCpmWp_qi686GCdDj7-17" value="X" style="rounded=1;whiteSpace=wrap;html=1;fontSize=18;" vertex="1" parent="1">
          <mxGeometry x="760" y="240" width="60" height="20" as="geometry" />
        </mxCell>
        <mxCell id="rGiCpmWp_qi686GCdDj7-18" value="X" style="rounded=1;whiteSpace=wrap;html=1;fontSize=18;" vertex="1" parent="1">
          <mxGeometry x="760" y="140" width="60" height="20" as="geometry" />
        </mxCell>
      </root>
    </mxGraphModel>
  </diagram>
</mxfile>
